<?xml version="1.0" standalone="no"?>
<!DOCTYPE svg PUBLIC "-//W3C//DTD SVG 20010904//EN"
 "http://www.w3.org/TR/2001/REC-SVG-20010904/DTD/svg10.dtd">
<svg version="1.0" xmlns="http://www.w3.org/2000/svg"
 width="1182.000000pt" height="786.000000pt" viewBox="0 0 1182.000000 786.000000"
 preserveAspectRatio="xMidYMid meet">

<g transform="translate(0.000000,786.000000) scale(0.100000,-0.100000)"
fill="#252525" stroke="none">
<path d="M10935 7834 c-169 -31 -334 -92 -585 -219 -153 -77 -277 -150 -890
-522 -118 -72 -395 -237 -615 -368 -220 -131 -749 -450 -1175 -708 -426 -259
-1106 -669 -1510 -912 -404 -243 -1268 -765 -1920 -1160 -1368 -829 -2235
-1350 -2880 -1730 -753 -443 -821 -484 -920 -555 -172 -123 -280 -236 -353
-370 -128 -233 -103 -527 70 -850 129 -240 259 -364 437 -415 46 -13 84 -16
165 -13 126 6 236 39 401 122 128 64 -404 -267 4654 2894 2342 1464 4262 2662
4266 2662 8 0 20 -3890 12 -3900 -2 -3 -499 -6 -1105 -6 -1247 -2 -1466 -10
-1720 -64 -263 -57 -470 -282 -559 -608 -17 -62 -21 -107 -21 -232 -1 -141 2
-163 27 -245 102 -334 364 -535 766 -584 115 -15 3300 -15 3500 0 328 23 501
85 629 225 99 107 166 289 190 512 15 138 16 5816 1 6012 -26 348 -97 610
-209 783 -144 219 -364 303 -656 251z"/>
</g>
</svg>
