<svg id="Layer_1" data-name="Layer 1" xmlns="http://www.w3.org/2000/svg" width="99.71" height="110.73" viewBox="0 0 99.71 110.73">
  <defs>
    <style>
      .cls-1 {
        font-size: 79.94px;
        fill: #e8d58c;
        stroke: #e8d58c;
        stroke-miterlimit: 10;
        stroke-width: 3px;
        font-family: Candara-BoldItalic, Candara;
        font-weight: 700;
        font-style: italic;
      }

      .cls-2 {
        fill: #ededed;
      }
    </style>
  </defs>
  <title>favicon</title>
  <g>
    <text class="cls-1" transform="translate(5.59 66.99) scale(1.11 1)">A</text>
    <path class="cls-2" d="M96,41.51H93.59a2.84,2.84,0,0,0-2.4,1.34H56.67c-15.14,0-27.41,12.57-27.41,28.07S41.53,99,56.67,99,84.08,86.43,84.08,70.92A28.7,28.7,0,0,0,82,60.23h9.18a2.83,2.83,0,0,0,2.4,1.33H96a2.82,2.82,0,0,0,2.83-2.82V44.34A2.83,2.83,0,0,0,96,41.51Zm-50.3,21,3.82,3.82a7.94,7.94,0,0,0-1.37,3.3H42.7A13.32,13.32,0,0,1,45.65,62.47ZM42.7,72.26h5.4a7.92,7.92,0,0,0,1.06,2.79l-3.87,3.86A13.26,13.26,0,0,1,42.7,72.26Zm12,12a13.35,13.35,0,0,1-7.56-3.34l3.81-3.81a7.93,7.93,0,0,0,3.75,1.75Zm0-21.21a8.07,8.07,0,0,0-3.3,1.38l-3.82-3.82a13.33,13.33,0,0,1,7.12-3Zm2.68-5.4A13.27,13.27,0,0,1,64,60.22l-3.86,3.86A8,8,0,0,0,57.34,63Zm0,26.61v-5.4a8,8,0,0,0,3.29-1.38l3.82,3.82A13.33,13.33,0,0,1,57.34,84.23Zm9-4.85-3.81-3.82a8,8,0,0,0,1.37-3.3h5.4A13.25,13.25,0,0,1,66.34,79.38ZM63.9,69.59a8,8,0,0,0-1.74-3.76L66,62a13.26,13.26,0,0,1,3.34,7.56Z" transform="translate(0.93 11.73)"/>
  </g>
</svg>
