<svg id="Layer_1" data-name="Layer 1" xmlns="http://www.w3.org/2000/svg" width="212.08" height="182" viewBox="0 0 212.08 182"><defs><style>.cls-1{fill:#fff;}.cls-2{fill:#e8d58c;}</style></defs><title>group3</title><path class="cls-1" d="M208.73,234H92.16a2.35,2.35,0,0,1-2.35-2.35v-107a2.36,2.36,0,0,0-4.18-1.49l-8.28,10.15a2.34,2.34,0,0,1-3.2.42L44.93,112.44a2.35,2.35,0,0,1-.46-3.36L89.1,52.89A2.37,2.37,0,0,1,90.94,52h30.71a2.36,2.36,0,0,1,2,1.1h0C135.54,72.05,163.88,71.45,175,52h35a2.34,2.34,0,0,1,1.84.89l43.74,55.32a2.35,2.35,0,0,1-.33,3.26l-26.3,22.1a2.33,2.33,0,0,1-3.22-.18l-10.53-11.11a2.35,2.35,0,0,0-4.06,1.62V231.65A2.36,2.36,0,0,1,208.73,234Z" transform="translate(-43.96 -52)"/><path class="cls-2" d="M123.89,53.59A2.32,2.32,0,0,0,122,52.5h-8c0,13.25,16.12,24,36,24s36-10.75,36-24H175.19C164.12,72.07,135.79,72.68,123.89,53.59Z" transform="translate(-43.96 -52)"/><circle cx="106.04" cy="36" r="4"/><circle cx="106.04" cy="48" r="4"/></svg>