<svg id="Layer_1" data-name="Layer 1" xmlns="http://www.w3.org/2000/svg" viewBox="0 0 779.38 293.66"><defs><style>.cls-1{fill:#fff;}.cls-2{fill:#272727;}.cls-3{fill:#e8d58c;}</style></defs><title>group2</title><path class="cls-1" d="M779.25,160.49v34c0,32.27-31.47,58.44-70.3,58.44H95.88c-38.82,0-70.3-26.17-70.3-58.44v-34c-16-120.11-62.1-143.9,31.15-87.8A163.2,163.2,0,0,0,141,95.82h0c14.09,0,27.43.19,36.37-10.1C199.74,60,223-.28,286.4,0,401,.58,353.7-.13,411,0,472.8.16,520.52,47.42,558.87,86.42a18.29,18.29,0,0,0,11.79,5.3l68.71,11.59c7.17,1.21,14.25,2.88,21.38,4.32C745.23,124.83,781.91,129.11,779.25,160.49Z" transform="translate(0 0.02)"/><path class="cls-2" d="M370.44,96.25H541c.67,0-64.64-81.71-121.53-83.2H368.78a2.36,2.36,0,0,0-2.25,2.48h0v76.8a2.09,2.09,0,0,0,0,.5A4,4,0,0,0,370.44,96.25Z" transform="translate(0 0.02)"/><path class="cls-2" d="M350,96.25H195.25c-.61,0,37-81.71,88.55-83.2h67.64a2.3,2.3,0,0,1,2,2.49V92.33a4.17,4.17,0,0,1,0,.5A3.77,3.77,0,0,1,350,96.25Z" transform="translate(0 0.02)"/><circle class="cls-3" cx="200.13" cy="220.25" r="73.41"/><circle class="cls-3" cx="617.75" cy="220.25" r="73.41"/><circle cx="200.74" cy="220.82" r="47.5"/><circle cx="618.35" cy="219.61" r="47.5"/><path class="cls-3" d="M739.28,132.14h-22.1c-8.06,0-14.6,4.79-14.6,10.71v9.57c0,5.91,6.54,10.71,14.6,10.71h44.2c8.07,0,14.61-4.8,14.61-10.71v-4.79C776,139.07,751,132.14,739.28,132.14Z" transform="translate(0 0.02)"/><path class="cls-3" d="M57.33,163.13H27.07c-1.2,0-1.26-3-1.47-5.13L21,131c-.27-2.73.81-4.54,2.35-4.54h34c1.36,0,2.47,2,2.47,4.45v27.77C59.8,161.14,58.69,163.13,57.33,163.13Z" transform="translate(0 0.02)"/></svg>