<svg id="Layer_1" data-name="Layer 1" xmlns="http://www.w3.org/2000/svg" viewBox="0 0 76.4 80"><defs><style>.cls-1{fill:#e8d58c;}.cls-2{fill:#fff;}</style></defs><title>group1</title><path class="cls-1" d="M29.49,46H9.83L0,63,9.83,80H29.49l9.83-17ZM19.66,73.62A10.62,10.62,0,1,1,30.28,63,10.62,10.62,0,0,1,19.66,73.62Z" transform="translate(0 0)"/><path class="cls-2" d="M75.65,71.8,52.38,32.46a19,19,0,0,0,3.47-4.32v-.05a17.3,17.3,0,0,0,.79-1.55.19.19,0,0,1,.07-.14c.22-.49.41-1,.59-1.52l.1-.26c.16-.48.28-1,.4-1.46a1.86,1.86,0,0,1,.1-.39c.11-.48.18-1,.24-1.46a1.08,1.08,0,0,1,.07-.46c.06-.64.1-1.29.1-2a17.33,17.33,0,0,0-.1-1.91,5.53,5.53,0,0,0-.12-.83,10.54,10.54,0,0,0-.18-1c-.08-.36-.18-.73-.28-1.08s-.11-.49-.18-.72c-.14-.43-.31-.83-.46-1.23l-.27-.67c-.16-.35-.34-.69-.52-1-.08-.15-.14-.31-.22-.45-.25-.45-.53-.88-.81-1.31L55,8.36c-.33-.48-.69-.94-1.07-1.39a.06.06,0,0,0,0-.06A19.44,19.44,0,0,0,39,0H37.74L49.62,19.37l-1.52,6.7-7.38,4.38-7.3-1.67L21.92,10.05c-.06.11-.13.22-.19.34l-.13.25c-.22.47-.59,1.34-.78,1.82-.05.13-.1.25-.14.37s-.18.53-.26.8-.18.67-.26,1-.1.43-.14.64c-.09.46-.16.92-.22,1.38a1.63,1.63,0,0,1-.05.49,11.08,11.08,0,0,0-.09,1.71A19.11,19.11,0,0,0,39,37.72a16.56,16.56,0,0,0,1.73-.09,9.94,9.94,0,0,0,1.64-.21h0L66,77.26a5.66,5.66,0,0,0,7.64,2h0a5.4,5.4,0,0,0,2.08-7.4Zm-5.09,6.59a4,4,0,1,1,4.07-4A4,4,0,0,1,70.56,78.39Z" transform="translate(0 0)"/></svg>