<svg id="Layer_1" data-name="Layer 1" xmlns="http://www.w3.org/2000/svg" viewBox="0 0 212.13 181.68"><defs><style>.cls-1{fill:#fff;}.cls-2{fill:#e8d58c;}</style></defs><title>group3</title><path class="cls-1" d="M131,.32a3.28,3.28,0,0,1-.2.31,2.06,2.06,0,0,1,1.09-.31Z" transform="translate(0 -0.32)"/><path class="cls-1" d="M211.62,56.43,167.88,1.21A2.31,2.31,0,0,0,166,.32H139.2a2.11,2.11,0,0,1,2.08,2.44c-1.86,11.86-17.06,21.58-35.53,21.58S71.2,14.62,69.24,2.75A2.09,2.09,0,0,1,71.32.32H47a2.36,2.36,0,0,0-1.84.89L.51,57.3l-.06.07A2.35,2.35,0,0,0,1,60.65L30.19,81.9a2.34,2.34,0,0,0,3.2-.41l8.28-10.14a2.36,2.36,0,0,1,4.18,1.49V179.65A2.35,2.35,0,0,0,48.2,182H164.81a2.36,2.36,0,0,0,2.37-2.35V72.09a2.31,2.31,0,0,1,.74-1.71,2.35,2.35,0,0,1,3.32.09l10.53,11.1a2.32,2.32,0,0,0,3.22.17l26.3-22.06A2.34,2.34,0,0,0,211.62,56.43ZM106,52.23a4,4,0,1,1,4-4A4,4,0,0,1,106,52.23Zm0-12a4,4,0,1,1,4-4A4,4,0,0,1,106,40.25Z" transform="translate(0 -0.32)"/><path class="cls-2" d="M79.69,1.41C91.51,20.23,119.6,19.73,130.84.63a2.37,2.37,0,0,0-.71.7c-11.37,18.12-38.69,18.36-50.28,0A2.28,2.28,0,0,0,78,.32h-.29A2.37,2.37,0,0,1,79.69,1.41Z" transform="translate(0 -0.32)"/><path class="cls-2" d="M69.24,2.75c2,11.87,18,21.59,36.51,21.59s33.67-9.72,35.53-21.58A2.11,2.11,0,0,0,139.2.32h-7.27a2.06,2.06,0,0,0-1.09.31c-11.24,19.1-39.33,19.6-51.15.78a2.37,2.37,0,0,0-2-1.09H71.32A2.09,2.09,0,0,0,69.24,2.75Z" transform="translate(0 -0.32)"/><ellipse cx="106.04" cy="35.94" rx="4" ry="3.99"/><ellipse cx="106.04" cy="47.92" rx="4" ry="3.99"/></svg>