<svg id="Layer_1" data-name="Layer 1" xmlns="http://www.w3.org/2000/svg" viewBox="0 0 76.41 80"><defs><style>.cls-1{fill:#e8d58c;}.cls-2{fill:#fff;}</style></defs><title>group1</title><path class="cls-1" d="M39.83,54H20.17L10.34,71l9.83,17H39.83l9.83-17ZM30,81.62A10.62,10.62,0,1,1,40.62,71,10.61,10.61,0,0,1,30,81.62Z" transform="translate(-10.34 -8)"/><path class="cls-2" d="M86,79.44,63.14,40.3A18.9,18.9,0,0,0,66.55,36l0-.05c.28-.5.54-1,.78-1.54,0,0,0-.09.07-.14.21-.49.4-1,.58-1.51l.09-.26c.16-.48.28-1,.4-1.46,0-.13.07-.25.1-.38.1-.48.17-1,.23-1.46,0-.15,0-.3.07-.45.06-.64.1-1.29.1-1.95a17.33,17.33,0,0,0-.1-1.91c0-.28-.08-.55-.12-.82s-.09-.7-.17-1.05-.18-.72-.28-1.07-.11-.49-.18-.72c-.13-.42-.3-.82-.45-1.22-.07-.17-.12-.34-.19-.5-.18-.41-.38-.8-.58-1.19-.08-.15-.14-.31-.22-.45-.25-.45-.52-.88-.8-1.3l-.15-.25q-.49-.72-1.05-1.38a.21.21,0,0,0,0-.06A19,19,0,0,0,50,8c-.42,0-.83,0-1.24,0L60.43,27.27l-1.49,6.67L51.69,38.3l-7.17-1.66L33.22,18c-.06.11-.13.22-.19.34l-.12.25a16.82,16.82,0,0,0-.7,1.62c-.07.19-.15.37-.21.56s-.17.52-.25.79-.18.67-.26,1-.1.42-.14.63q-.13.69-.21,1.38c0,.16,0,.32-.05.48C31,25.64,31,26.2,31,26.76A18.89,18.89,0,0,0,50,45.53a15.85,15.85,0,0,0,1.7-.09c.55,0,1.08-.12,1.61-.21h0L76.49,84.87a5.53,5.53,0,0,0,7.51,2h0A5.4,5.4,0,0,0,86,79.44ZM81,86a4,4,0,1,1,4-4A4,4,0,0,1,81,86Z" transform="translate(-10.34 -8)"/></svg>