<svg id="Layer_1" data-name="Layer 1" xmlns="http://www.w3.org/2000/svg" viewBox="0 0 98.1 80.27"><defs><style>.cls-1{fill:#fff;}.cls-2{fill:#e8d58c;}</style></defs><title>group4</title><path class="cls-1" d="M90.75,38,50,9.37a1,1,0,0,0-1.14,0L8.17,38A1,1,0,0,0,8,39.4a1,1,0,0,0,.77.4h7.73a1,1,0,0,1,1,1v39a1,1,0,0,0,1,1h62a1,1,0,0,0,1-1v-39a1,1,0,0,1,1-1H90.2a1,1,0,0,0,1-1A1,1,0,0,0,90.75,38Z" transform="translate(-0.41 -0.53)"/><path class="cls-2" d="M.92,34.39h0A1.16,1.16,0,0,0,.63,36l.92,1.28,0,0a1.19,1.19,0,0,0,1.66.26L48.34,6.38a1.9,1.9,0,0,1,2.16,0c7,4.81,45.28,31.29,45.28,31.29l.08.06a1,1,0,0,0,1.37-.31l1.08-1.52.06-.1A1,1,0,0,0,98,34.45l-28.44-19a1,1,0,0,1-.46-.86v-13a.43.43,0,0,1,0-.05,1,1,0,0,0-1-1h-5a1,1,0,0,0-.94,1v5.9A1,1,0,0,1,62,8a1,1,0,0,1-1.44.32L49.46,1.11" transform="translate(-0.41 -0.53)"/><rect class="cls-2" x="26.55" y="43.47" width="18" height="18" rx="1.6"/><rect x="53.55" y="43.47" width="18" height="36.8" rx="1.3"/></svg>