<svg id="Layer_1" data-name="Layer 1" xmlns="http://www.w3.org/2000/svg" viewBox="0 0 122.08 100.01"><defs><style>.cls-1{fill:none;stroke:#000;stroke-miterlimit:10;}.cls-2{fill:#fff;}.cls-3{fill:#e8d58c;}</style></defs><title>group3</title><path class="cls-1" d="M153.61,23.61" transform="translate(-75.42 -9.99)"/><path class="cls-2" d="M197,42.93C190.84,36.31,167,10,165.21,10H148.08c-.05,0-12,8.05-12.08,8l-13-8s-16.91,0-16.91,0c-1.82,0-24.42,25.39-30.23,32a1.74,1.74,0,0,0,.38,2.63L96.7,57.38a1.74,1.74,0,0,0,2.55-.86,1.74,1.74,0,0,1,3.37.63l-.32,48c0,2.67,1.69,4.83,3.79,4.83h59.12c2.09,0,3.79-2.16,3.79-4.83V56.89a2,2,0,0,1,3.86-.55,1.75,1.75,0,0,0,2.57,1l21.22-11.73A1.74,1.74,0,0,0,197,42.93Z" transform="translate(-75.42 -9.99)"/><circle class="cls-3" cx="61.08" cy="20.51" r="2"/><circle class="cls-3" cx="61.08" cy="26.51" r="2"/><polygon class="cls-3" points="81.58 0.01 72.58 0.01 60.77 8.08 47.58 0.01 39.58 0.01 60.77 15.15 81.58 0.01"/><path class="cls-3" d="M148,10" transform="translate(-75.42 -9.99)"/></svg>