<svg id="Layer_1" data-name="Layer 1" xmlns="http://www.w3.org/2000/svg" viewBox="0 0 98.45 80.81"><defs><style>.cls-1{fill:#fff;}.cls-2{fill:#e8d58c;}</style></defs><title>group4</title><path class="cls-1" d="M91.79,48,51.07,19.37a1,1,0,0,0-1.14,0L9.21,48a1,1,0,0,0,.57,1.8h7.73a1,1,0,0,1,1,1v39a1,1,0,0,0,1,1h62a1,1,0,0,0,1-1v-39a1,1,0,0,1,1-1h7.73A1,1,0,0,0,91.79,48Z" transform="translate(-1.04 -10)"/><path class="cls-2" d="M2.18,47.3,1.25,46a1.19,1.19,0,0,1,.29-1.66L48,11.82s1.75-.42,1.75-.42c.75-.4.38.26.46,1.11l.16,1.81a1.22,1.22,0,0,1-.51,1.08l-46,32.19A1.19,1.19,0,0,1,2.18,47.3Z" transform="translate(-1.04 -10)"/><path class="cls-2" d="M99.29,45.87l-1.08,1.54a1,1,0,0,1-1.46.26L50.53,15.31a1.07,1.07,0,0,1-.45-.84l0-2.11c0-.76-.24-1.29.46-1l1.89.38.18.1,8.78,6A1.05,1.05,0,0,0,63,17v-6a1,1,0,0,1,1-1.05H69a1,1,0,0,1,1,1.05V24.24a1.05,1.05,0,0,0,.46.87L99,44.4A1,1,0,0,1,99.29,45.87Z" transform="translate(-1.04 -10)"/><rect class="cls-2" x="26.96" y="44" width="18" height="18" rx="1.6"/><rect x="53.96" y="44" width="18" height="36.8" rx="1.3"/></svg>