<svg id="Layer_1" data-name="Layer 1" xmlns="http://www.w3.org/2000/svg" viewBox="0 0 779.42 293.61"><defs><style>.cls-1{fill:#fff;}.cls-2{fill:#272727;}.cls-3{fill:#e8d58c;}</style></defs><title>group2</title><path class="cls-1" d="M779.29,160.51v34c0,32.3-31.5,58.4-70.3,58.4H95.89c-38.8,0-70.3-26.2-70.3-58.4v-34c-16-120.1-62.1-143.9,31.1-87.8A163.49,163.49,0,0,0,141,95.81h0c14.1,0,27.4.2,36.4-10.1C199.69,60,223-.29,286.39,0c114.6.6,67.3-.1,124.6,0,61.8.2,109.5,47.4,147.9,86.4a18.64,18.64,0,0,0,11.8,5.3l68.7,11.6c7.2,1.2,14.3,2.9,21.4,4.3C745.19,124.81,781.89,129.11,779.29,160.51Z" transform="translate(0 0)"/><path class="cls-2" d="M370.39,96.31H541c.7,0-64.6-81.7-121.5-83.2h-50.7a2.51,2.51,0,0,0-2.3,2.5h0v77.3A4.16,4.16,0,0,0,370.39,96.31Z" transform="translate(0 0)"/><path class="cls-2" d="M350,96.31H195.29c-.6,0,37-81.7,88.6-83.2h67.6a2.39,2.39,0,0,1,2,2.5v77.3A3.93,3.93,0,0,1,350,96.31Z" transform="translate(0 0)"/><circle class="cls-3" cx="200.09" cy="220.21" r="73.4"/><circle class="cls-3" cx="617.79" cy="220.21" r="73.4"/><circle cx="200.69" cy="220.81" r="47.5"/><circle cx="618.29" cy="219.61" r="47.5"/><path class="cls-3" d="M739.29,132.11h-22.1c-8.1,0-14.6,4.8-14.6,10.7v9.6c0,5.9,6.5,10.7,14.6,10.7h44.2c8.1,0,14.6-4.8,14.6-10.7v-4.8C776,139.11,751,132.11,739.29,132.11Z" transform="translate(0 0)"/><path class="cls-3" d="M57.29,163.11H27.09c-1.2,0-1.3-3-1.5-5.1L21,131c-.3-2.7.8-4.5,2.3-4.5h34c1.4,0,2.5,2,2.5,4.5v27.8C59.79,161.11,58.69,163.11,57.29,163.11Z" transform="translate(0 0)"/></svg>