<svg id="Layer_1" data-name="Layer 1" xmlns="http://www.w3.org/2000/svg" viewBox="0 0 779.38 293.64"><defs><style>.cls-1{fill:#fff;}.cls-2{fill:#e8d58c;}</style></defs><title>group2</title><path class="cls-1" d="M779.27,160.49v34c0,32.27-31.47,58.44-70.3,58.44H95.9c-38.82,0-70.3-26.17-70.3-58.44v-34C9.6,40.38-36.5,16.59,56.75,72.69a163.23,163.23,0,0,0,84.3,23.13h0c14.09,0,27.43.19,36.37-10.1C199.76,60,223-.28,286.42,0,401,.58,353.72-.13,411,0c61.82.16,109.54,47.42,147.89,86.42a18.29,18.29,0,0,0,11.79,5.3l68.71,11.59c7.17,1.21,14.25,2.88,21.38,4.32C745.25,124.83,781.93,129.11,779.27,160.49Z" transform="translate(-0.02 0)"/><path d="M370.46,96.25H541.05c.67,0-64.64-81.71-121.53-83.2H368.8a2.37,2.37,0,0,0-2.25,2.48h0V92.33a2.09,2.09,0,0,0,0,.5A4,4,0,0,0,370.46,96.25Z" transform="translate(-0.02 0)"/><path d="M350,96.25H195.27c-.61,0,37-81.71,88.55-83.2h67.64a2.3,2.3,0,0,1,2,2.49V92.33a4.17,4.17,0,0,1,0,.5A3.77,3.77,0,0,1,350,96.25Z" transform="translate(-0.02 0)"/><circle class="cls-2" cx="200.13" cy="220.23" r="73.41"/><circle class="cls-2" cx="617.75" cy="220.23" r="73.41"/><ellipse cx="200.74" cy="220.8" rx="56.42" ry="56.45"/><ellipse cx="618.35" cy="219.59" rx="56.42" ry="56.45"/><path class="cls-2" d="M739.3,132.14H717.2c-8.06,0-14.6,4.79-14.6,10.71v9.57c0,5.91,6.54,10.71,14.6,10.71h44.2c8.07,0,14.61-4.8,14.61-10.71v-4.79C776.05,139.07,751,132.14,739.3,132.14Z" transform="translate(-0.02 0)"/><rect class="cls-2" x="25.58" y="135.4" width="30" height="20" rx="5.13"/></svg>