<svg id="Layer_1" data-name="Layer 1" xmlns="http://www.w3.org/2000/svg" viewBox="0 0 707 292.72"><defs><style>.cls-1{fill:#fff;}.cls-2{fill:#e8d58c;}</style></defs><title>group2</title><path class="cls-1" d="M599.35,107.61c-6.41-1.4-12.88-3.1-19.41-4.3l-62.32-11.6a16.22,16.22,0,0,1-10.7-5.3C472.09,47.41,428.82.21,372.76,0c-51.95-.1-9,.6-113,0-57.5-.29-78.65,60-98.86,85.71-8.15,10.3-20.21,10.1-33,10.1a138,138,0,0,1-76.48-23.1c-84.54-56.08-42.72-32.3-28.21,87.8v34c0,32.2,28.57,58.4,63.77,58.4H643.11c35.2,0,63.77-26.1,63.77-58.4v-34C709.24,129.12,676,124.82,599.35,107.61Zm-278.75-92v77.3a3.75,3.75,0,0,1-3.12,3.4H177.14c-.54,0,33.57-81.7,80.37-83.2h61.28A2.33,2.33,0,0,1,320.6,15.62ZM336,96.32a3.91,3.91,0,0,1-3.53-3.4V15.62a2.43,2.43,0,0,1,2.08-2.5h46c51.61,1.5,110.85,83.2,110.21,83.2Z" transform="translate(0 0)"/><circle class="cls-2" cx="177.96" cy="220.22" r="72.5"/><circle class="cls-2" cx="541.98" cy="220.22" r="72.5"/><circle cx="178.55" cy="220.81" r="46.92"/><circle cx="542.48" cy="219.63" r="46.92"/><path class="cls-2" d="M671.6,132.12h-20c-7.35,0-13.24,4.8-13.24,10.7v9.6c0,5.9,5.89,10.7,13.24,10.7h40.09c7.35,0,15.25-4.8,15.25-10.7l-1-4.78C701.2,135,682.22,132.12,671.6,132.12Z" transform="translate(0 0)"/><path class="cls-2" d="M52,163H23.1c-.76,0-4.05-32-4.05-32-.27-2.7.72-4.5,2.08-4.5H52c1.27,0,2.27,2,2.27,4.5v27.8C54.23,161.12,53.24,163,52,163Z" transform="translate(0 0)"/></svg>