<svg id="Layer_1" data-name="Layer 1" xmlns="http://www.w3.org/2000/svg" viewBox="0 0 707 292.72"><defs><style>.cls-1{fill:#fff;}.cls-2{fill:#272727;}.cls-3{fill:#e8d58c;}</style></defs><title>group2</title><path class="cls-1" d="M743.09,161.88v34c0,32.3-28.57,58.4-63.77,58.4H123.19c-35.2,0-63.77-26.2-63.77-58.4v-34C44.91,41.78,3.09,18,87.63,74.08a138,138,0,0,0,76.48,23.1h0c12.79,0,24.85.2,33-10.1,20.21-25.71,41.36-86,98.86-85.71,104,.6,61.05-.1,113,0,56.06.2,99.33,47.4,134.16,86.4a16.21,16.21,0,0,0,10.7,5.3l62.32,11.6c6.53,1.2,13,2.9,19.41,4.3C712.16,126.18,745.45,130.48,743.09,161.88Z" transform="translate(-36.21 -1.36)"/><path class="cls-2" d="M372.18,97.68H526.94c.64,0-58.6-81.7-110.21-83.2h-46a2.42,2.42,0,0,0-2.08,2.5h0v77.3A3.9,3.9,0,0,0,372.18,97.68Z" transform="translate(-36.21 -1.36)"/><path class="cls-2" d="M353.69,97.68H213.35c-.54,0,33.57-81.7,80.37-83.2H355a2.34,2.34,0,0,1,1.81,2.5v77.3A3.75,3.75,0,0,1,353.69,97.68Z" transform="translate(-36.21 -1.36)"/><circle class="cls-3" cx="189.96" cy="220.22" r="72.5"/><circle class="cls-3" cx="548.98" cy="220.22" r="72.5"/><circle cx="190.55" cy="220.81" r="46.92"/><circle cx="549.48" cy="219.63" r="46.92"/><path class="cls-3" d="M706.81,133.48h-20c-7.35,0-13.24,4.8-13.24,10.7v9.6c0,5.9,5.89,10.7,13.24,10.7h40.09c7.35,0,13.25-4.8,13.25-10.7V149C740.11,140.48,717.43,133.48,706.81,133.48Z" transform="translate(-36.21 -1.36)"/><path class="cls-3" d="M88.18,164.48H60.78c-1.09,0-1.18-3-1.36-5.1l-4.16-27c-.27-2.7.72-4.5,2.08-4.5H88.18c1.27,0,2.27,2,2.27,4.5v27.8C90.44,162.48,89.45,164.48,88.18,164.48Z" transform="translate(-36.21 -1.36)"/></svg>