<?xml version="1.0" standalone="no"?>
<!DOCTYPE svg PUBLIC "-//W3C//DTD SVG 20010904//EN"
 "http://www.w3.org/TR/2001/REC-SVG-20010904/DTD/svg10.dtd">
<svg version="1.0" xmlns="http://www.w3.org/2000/svg"
 width="4756.000000pt" height="1316.000000pt" viewBox="0 0 4756.000000 1316.000000"
 preserveAspectRatio="xMidYMid meet">

<g transform="translate(0.000000,1316.000000) scale(0.100000,-0.100000)"
fill="#252525" stroke="none">
<path d="M0 6580 l0 -6580 23780 0 23780 0 0 6580 0 6580 -23780 0 -23780 0 0
-6580z m18990 4530 c904 -43 1624 -196 2220 -473 49 -23 129 -78 232 -159 153
-121 186 -156 323 -340 21 -27 349 -448 720 -923 116 -148 219 -282 230 -296
37 -50 609 -784 708 -909 123 -155 146 -196 198 -340 102 -288 135 -610 118
-1167 -13 -445 -43 -681 -129 -1026 -285 -1137 -1053 -2166 -2080 -2787 -150
-90 -451 -241 -635 -318 -1086 -455 -2430 -492 -3635 -100 -187 61 -412 147
-550 211 -153 70 -178 82 -325 160 -404 215 -741 462 -1088 797 -348 336 -587
664 -795 1088 -469 955 -576 2110 -295 3192 115 444 284 824 549 1233 276 425
680 857 1104 1181 348 266 745 489 1160 651 493 193 1001 301 1515 325 88 4
178 7 200 8 22 1 137 -3 255 -8z m-10814 -1942 c137 -967 252 -1760 255 -1762
3 -3 86 189 186 427 99 238 432 1032 738 1765 l558 1332 1696 -2 1696 -3 3
-4362 2 -4363 -1525 0 -1525 0 0 48 c0 26 11 306 25 622 13 316 40 955 60
1420 20 465 44 1034 54 1265 10 231 16 422 15 424 -2 2 -8 -9 -14 -24 -6 -16
-39 -94 -74 -174 -72 -164 -215 -496 -661 -1526 -169 -390 -359 -829 -422
-975 -63 -146 -134 -310 -158 -365 -24 -55 -84 -194 -135 -310 -50 -115 -110
-254 -133 -308 l-41 -97 -1018 0 -1018 0 -5 22 c-2 13 -48 313 -101 668 -52
355 -133 897 -179 1205 -46 308 -130 870 -187 1248 -94 634 -103 686 -115 650
-6 -21 -105 -400 -218 -843 -114 -443 -249 -967 -300 -1165 -51 -198 -175
-681 -275 -1072 l-184 -713 -1558 0 c-857 0 -1558 3 -1558 6 0 4 31 113 69
243 38 130 124 423 191 651 67 228 159 543 205 700 46 157 374 1280 730 2495
1165 3983 1346 4600 1351 4618 5 16 91 17 1662 15 l1657 -3 251 -1757z m22444
1740 c0 -25 -281 -2752 -284 -2755 -1 -1 -308 13 -681 32 -373 19 -681 33
-683 31 -4 -4 -98 -800 -598 -5018 l-118 -998 -1653 0 -1652 0 5 28 c2 15 94
749 204 1632 110 883 276 2219 370 2969 94 750 169 1365 168 1366 -2 1 -271
-8 -598 -21 -327 -13 -605 -23 -617 -23 -23 -1 -29 8 -424 524 -176 229 -1415
1855 -1587 2080 -67 89 -122 164 -122 168 0 4 1861 7 4135 7 l4135 0 0 -22z
m3936 -15 c-3 -21 -26 -211 -51 -423 -25 -212 -164 -1409 -310 -2660 -154
-1311 -266 -2312 -266 -2363 0 -104 5 -147 33 -242 43 -150 130 -294 237 -393
133 -122 239 -157 481 -157 132 0 167 4 235 23 156 45 239 96 387 238 177 171
255 376 317 844 17 124 118 866 225 1650 107 784 258 1891 336 2460 78 569
143 1041 145 1048 6 16 3165 18 3165 2 0 -6 -99 -882 -220 -1948 -122 -1065
-252 -2211 -290 -2547 -60 -526 -125 -1100 -159 -1395 -19 -164 -94 -473 -167
-683 -199 -572 -502 -1033 -924 -1408 -311 -276 -757 -530 -1232 -700 -777
-278 -1772 -356 -2855 -223 -453 55 -1054 270 -1503 536 -618 368 -1060 846
-1283 1388 -132 321 -179 536 -198 901 -23 458 -24 456 216 2489 118 998 259
2200 315 2670 55 470 103 872 106 893 l6 37 1630 0 1630 0 -6 -37z m9104 13
c0 -12 -97 -808 -215 -1767 -119 -959 -281 -2273 -360 -2919 -80 -646 -147
-1192 -151 -1212 l-6 -38 1294 0 c712 0 1297 -2 1300 -6 3 -3 -2 -33 -12 -67
-10 -34 -98 -348 -195 -697 -97 -349 -239 -858 -315 -1130 -76 -272 -162 -579
-190 -683 l-53 -187 -2758 0 c-2715 0 -2759 0 -2759 19 0 27 1129 8683 1135
8699 3 9 342 12 1645 12 l1640 0 0 -24z"/>
<path d="M18870 8219 c-227 -26 -460 -102 -665 -219 -206 -116 -443 -342 -577
-550 -136 -210 -231 -436 -287 -680 -66 -290 -52 -659 35 -919 35 -101 141
-318 205 -417 207 -318 534 -545 932 -645 104 -27 390 -37 522 -20 278 37 549
151 768 322 246 192 493 530 597 817 77 214 110 411 110 661 0 255 -22 400
-96 620 -121 359 -310 608 -613 805 -176 115 -409 209 -564 226 -97 12 -261
11 -367 -1z"/>
</g>
</svg>
