<?xml version="1.0" encoding="UTF-8"?>
<svg fill="none" viewBox="0 0 20 20" xmlns="http://www.w3.org/2000/svg">
<g clip-path="url(#a)">
<path d="m19.98 5.88c-0.0468-1.0627-0.2187-1.7932-0.4648-2.4263-0.254-0.67198-0.6447-1.2736-1.1566-1.7737-0.5001-0.50792-1.1057-0.90258-1.7699-1.1526-0.6367-0.24617-1.3635-0.41802-2.4261-0.46487-1.0706-0.050822-1.4105-0.062573-4.1259-0.062573-2.7154 0-3.0552 0.011752-4.1219 0.058605-1.0627 0.046854-1.7933 0.21885-2.4262 0.46487-0.67212 0.25396-1.2737 0.64466-1.7739 1.1565-0.50791 0.50012-0.90243 1.1057-1.1526 1.7699-0.24617 0.63688-0.41802 1.3635-0.46487 2.4262-0.050822 1.0706-0.062573 1.4105-0.062573 4.1259 0 2.7153 0.011752 3.0552 0.058605 4.1219 0.046854 1.0626 0.21885 1.7932 0.46503 2.4263 0.25396 0.6719 0.64847 1.2736 1.1564 1.7737 0.50013 0.5079 1.1057 0.9026 1.7699 1.1526 0.63687 0.2461 1.3635 0.418 2.4263 0.4648 1.0665 0.047 1.4065 0.0586 4.1219 0.0586 2.7154 0 3.0552-0.0116 4.1219-0.0586 1.0627-0.0468 1.7932-0.2187 2.4261-0.4648 1.3441-0.5197 2.4068-1.5824 2.9265-2.9263 0.246-0.6369 0.418-1.3637 0.4649-2.4263 0.0468-1.0667 0.0586-1.4066 0.0586-4.1219 0-2.7154-4e-3 -3.0553-0.0509-4.122zm-1.801 8.1656c-0.043 0.9768-0.2071 1.5042-0.3438 1.8558-0.3361 0.8713-1.0276 1.5628-1.8989 1.8989-0.3516 0.1368-0.8829 0.3008-1.8558 0.3437-1.0549 0.047-1.3713 0.0586-4.0398 0.0586-2.6686 0-2.9889-0.0116-4.04-0.0586-0.97675-0.0429-1.5042-0.2069-1.8558-0.3437-0.43359-0.1602-0.82826-0.4142-1.1486-0.7463-0.3321-0.3243-0.58605-0.715-0.7463-1.1486-0.13675-0.3516-0.30081-0.883-0.34369-1.8558-0.04701-1.0549-0.05861-1.3714-0.05861-4.04 0-2.6685 0.0116-2.9888 0.05861-4.0398 0.04288-0.97676 0.20694-1.5042 0.34369-1.8558 0.16025-0.43374 0.4142-0.82826 0.75027-1.1488 0.32416-0.33209 0.71486-0.58605 1.1486-0.74615 0.35163-0.13674 0.88304-0.30081 1.8558-0.34384 1.0549-0.04686 1.3714-0.05861 4.0398-0.05861 2.6725 0 2.9888 0.01175 4.0399 0.05861 0.9768 0.04303 1.5042 0.2071 1.8559 0.34384 0.4335 0.1601 0.8282 0.41406 1.1486 0.74615 0.332 0.32431 0.586 0.71502 0.7463 1.1488 0.1367 0.35163 0.3008 0.88289 0.3438 1.8558 0.0469 1.0549 0.0586 1.3713 0.0586 4.0398 0 2.6686-0.0117 2.9811-0.0586 4.036z" fill="#AFB1B8"/>
<path d="m19.98 5.88c-0.0468-1.0627-0.2187-1.7932-0.4648-2.4263-0.254-0.67198-0.6447-1.2736-1.1566-1.7737-0.5001-0.50792-1.1057-0.90258-1.7699-1.1526-0.6367-0.24617-1.3635-0.41802-2.4261-0.46487-1.0706-0.050822-1.4105-0.062573-4.1259-0.062573-2.7154 0-3.0552 0.011752-4.1219 0.058605-1.0627 0.046854-1.7933 0.21885-2.4262 0.46487-0.67212 0.25396-1.2737 0.64466-1.7739 1.1565-0.50791 0.50012-0.90243 1.1057-1.1526 1.7699-0.24617 0.63688-0.41802 1.3635-0.46487 2.4262-0.050822 1.0706-0.062573 1.4105-0.062573 4.1259 0 2.7153 0.011752 3.0552 0.058605 4.1219 0.046854 1.0626 0.21885 1.7932 0.46503 2.4263 0.25396 0.6719 0.64847 1.2736 1.1564 1.7737 0.50013 0.5079 1.1057 0.9026 1.7699 1.1526 0.63687 0.2461 1.3635 0.418 2.4263 0.4648 1.0665 0.047 1.4065 0.0586 4.1219 0.0586 2.7154 0 3.0552-0.0116 4.1219-0.0586 1.0627-0.0468 1.7932-0.2187 2.4261-0.4648 1.3441-0.5197 2.4068-1.5824 2.9265-2.9263 0.246-0.6369 0.418-1.3637 0.4649-2.4263 0.0468-1.0667 0.0586-1.4066 0.0586-4.1219 0-2.7154-4e-3 -3.0553-0.0509-4.122zm-1.801 8.1656c-0.043 0.9768-0.2071 1.5042-0.3438 1.8558-0.3361 0.8713-1.0276 1.5628-1.8989 1.8989-0.3516 0.1368-0.8829 0.3008-1.8558 0.3437-1.0549 0.047-1.3713 0.0586-4.0398 0.0586-2.6686 0-2.9889-0.0116-4.04-0.0586-0.97675-0.0429-1.5042-0.2069-1.8558-0.3437-0.43359-0.1602-0.82826-0.4142-1.1486-0.7463-0.3321-0.3243-0.58605-0.715-0.7463-1.1486-0.13675-0.3516-0.30081-0.883-0.34369-1.8558-0.04701-1.0549-0.05861-1.3714-0.05861-4.04 0-2.6685 0.0116-2.9888 0.05861-4.0398 0.04288-0.97676 0.20694-1.5042 0.34369-1.8558 0.16025-0.43374 0.4142-0.82826 0.75027-1.1488 0.32416-0.33209 0.71486-0.58605 1.1486-0.74615 0.35163-0.13674 0.88304-0.30081 1.8558-0.34384 1.0549-0.04686 1.3714-0.05861 4.0398-0.05861 2.6725 0 2.9888 0.01175 4.0399 0.05861 0.9768 0.04303 1.5042 0.2071 1.8559 0.34384 0.4335 0.1601 0.8282 0.41406 1.1486 0.74615 0.332 0.32431 0.586 0.71502 0.7463 1.1488 0.1367 0.35163 0.3008 0.88289 0.3438 1.8558 0.0469 1.0549 0.0586 1.3713 0.0586 4.0398 0 2.6686-0.0117 2.9811-0.0586 4.036z" fill="#000" fill-opacity=".2"/>
<path d="m10.037 4.8642c-2.8364 0-5.1377 2.3012-5.1377 5.1377 0 2.8366 2.3013 5.1377 5.1377 5.1377 2.8366 0 5.1378-2.3011 5.1378-5.1377 0-2.8365-2.3012-5.1377-5.1378-5.1377zm0 8.4704c-1.8401 0-3.3327-1.4924-3.3327-3.3327 0-1.8402 1.4926-3.3327 3.3327-3.3327 1.8403 0 3.3327 1.4924 3.3327 3.3327 0 1.8403-1.4924 3.3327-3.3327 3.3327z" fill="#AFB1B8"/>
<path d="m10.037 4.8642c-2.8364 0-5.1377 2.3012-5.1377 5.1377 0 2.8366 2.3013 5.1377 5.1377 5.1377 2.8366 0 5.1378-2.3011 5.1378-5.1377 0-2.8365-2.3012-5.1377-5.1378-5.1377zm0 8.4704c-1.8401 0-3.3327-1.4924-3.3327-3.3327 0-1.8402 1.4926-3.3327 3.3327-3.3327 1.8403 0 3.3327 1.4924 3.3327 3.3327 0 1.8403-1.4924 3.3327-3.3327 3.3327z" fill="#000" fill-opacity=".2"/>
<path d="m16.578 4.6611c0 0.66236-0.5371 1.1994-1.1996 1.1994-0.6624 0-1.1994-0.53706-1.1994-1.1994 0-0.66252 0.537-1.1994 1.1994-1.1994 0.6625 0 1.1996 0.53691 1.1996 1.1994z" fill="#AFB1B8"/>
<path d="m16.578 4.6611c0 0.66236-0.5371 1.1994-1.1996 1.1994-0.6624 0-1.1994-0.53706-1.1994-1.1994 0-0.66252 0.537-1.1994 1.1994-1.1994 0.6625 0 1.1996 0.53691 1.1996 1.1994z" fill="#000" fill-opacity=".2"/>
</g>
<defs>
<clipPath id="a">
<rect width="20" height="20" fill="#fff"/>
</clipPath>
</defs>
</svg>
